<svg width="159" height="32" viewBox="0 0 159 32" fill="none" xmlns="http://www.w3.org/2000/svg">
<g id="great8cinema">
<path id="eight" d="M82.5665 14.0629L81.9501 14.487L82.5778 14.8942C85.3021 16.6618 86.959 19.2129 86.959 22C86.959 24.5661 85.5559 26.9296 83.2073 28.6693C80.8588 30.409 77.5906 31.5 73.959 31.5C70.3273 31.5 67.0592 30.409 64.7107 28.6693C62.362 26.9296 60.959 24.5661 60.959 22C60.959 19.2129 62.6159 16.6618 65.3402 14.8942L65.9679 14.487L65.3515 14.0629C63.2103 12.5897 61.959 10.6163 61.959 8.5C61.959 6.36737 63.2299 4.37961 65.4013 2.90306C67.5701 1.42829 70.5942 0.5 73.959 0.5C77.3238 0.5 80.3479 1.42829 82.5167 2.90306C84.6881 4.37961 85.959 6.36737 85.959 8.5C85.959 10.6163 84.7076 12.5897 82.5665 14.0629ZM73.959 12.5C76.5962 12.5 78.959 10.8188 78.959 8.5C78.959 6.1812 76.5962 4.5 73.959 4.5C71.3218 4.5 68.959 6.1812 68.959 8.5C68.959 10.8188 71.3218 12.5 73.959 12.5ZM73.959 26.5C76.5962 26.5 78.959 24.8188 78.959 22.5C78.959 20.1812 76.5962 18.5 73.959 18.5C71.3218 18.5 68.959 20.1812 68.959 22.5C68.959 24.8188 71.3218 26.5 73.959 26.5Z" stroke="#0096FA"/>
<path id="great" d="M13.2977 19.4718L13.254 19.02H12.8H7.58001H7.08001V19.52V21.72V22.22H7.58001H9.9597C9.9599 22.2346 9.96001 22.248 9.96001 22.26C9.96001 23.1522 9.7516 23.7222 9.42636 24.0668L9.42635 24.0668L9.42379 24.0696C9.12013 24.3962 8.564 24.62 7.62001 24.62C7.09951 24.62 6.65185 24.4561 6.25648 24.1213C5.86237 23.7754 5.53113 23.255 5.28475 22.5231C5.0455 21.7858 4.92001 20.8946 4.92001 19.84C4.92001 18.9899 5.06366 18.2528 5.33868 17.619C5.61536 16.9815 5.98689 16.5074 6.44439 16.1742C6.89907 15.843 7.39937 15.68 7.96001 15.68C9.28001 15.68 10.063 16.0273 10.4809 16.5812L10.9686 17.2275L11.328 16.502L12.428 14.282L12.5899 13.9554L12.3284 13.7014C12.0654 13.4458 11.7702 13.2221 11.4444 13.0295C11.0889 12.8195 10.6171 12.6553 10.0549 12.5234C9.47037 12.3846 8.75514 12.32 7.92001 12.32C6.63736 12.32 5.47543 12.6475 4.44925 13.3097C3.43352 13.9627 2.64464 14.8713 2.08113 16.0197C1.51631 17.1708 1.24001 18.4679 1.24001 19.9C1.24001 21.493 1.49851 22.8985 2.03299 24.1028L2.03298 24.1028L2.03445 24.1061C2.57318 25.297 3.32211 26.2316 4.29048 26.8846L4.29193 26.8855C5.26511 27.5368 6.3662 27.86 7.58001 27.86C9.66806 27.86 11.2583 27.2995 12.1665 26.0311C13.0181 24.8419 13.42 23.3032 13.42 21.46C13.42 20.9695 13.3782 20.3043 13.2977 19.4718ZM20.9705 27.2895L21.12 27.5H21.3781H24.4781H25.4732L24.8793 26.7016L21.6941 22.4193C22.2279 22.2002 22.6941 21.8917 23.0853 21.4899C23.6226 20.9449 24.0137 20.3171 24.252 19.6096L24.2525 19.6081C24.4824 18.9183 24.5981 18.2149 24.5981 17.5C24.5981 15.9277 24.1565 14.6612 23.1916 13.7975C22.2373 12.9432 20.8557 12.56 19.1381 12.56H15.2581H14.7581V13.06V27V27.5H15.2581H17.7981H18.2981V27V23.5273L20.9705 27.2895ZM18.8581 20.2H18.2981V15.56H18.7981C19.7239 15.56 20.2578 15.7677 20.5391 16.058L20.5391 16.058L20.5418 16.0608C20.8386 16.3622 21.0381 16.8851 21.0381 17.74C21.0381 18.2064 20.9483 18.628 20.7737 19.0114C20.6055 19.3745 20.3596 19.6628 20.03 19.8845C19.7261 20.0869 19.3437 20.2 18.8581 20.2ZM34.9211 24.74V24.24H34.4211H29.7411V21.12H33.0411H33.5411V20.62V18.5V18H33.0411H29.7411V15.74H34.0211H34.5211V15.24V13.06V12.56H34.0211H26.7411H26.2411V13.06V27V27.5H26.7411H34.1487H34.4211H34.8983H34.9211H37.6983H38.0476L38.1678 27.172L38.7876 25.48H43.0754L43.7318 27.1801L43.8554 27.5H44.1983H46.9183H47.6689L47.3797 26.8074L41.4597 12.6274L41.3314 12.32H40.9983H40.7983H40.4648L40.3367 12.6279L34.9211 25.6436V24.74ZM39.8754 22.54L40.8912 19.7828L41.9505 22.54H39.8754ZM55.2628 15.82H55.7628V15.32V13.06V12.56H55.2628H46.2428H45.7428V13.06V15.32V15.82H46.2428H48.9628V27V27.5H49.4628H52.0428H52.5428V27V15.82H55.2628Z" stroke="#0096FA"/>
<path id="cinema" d="M94.3318 26.852L94.3341 26.8534C95.273 27.443 96.2984 27.74 97.4 27.74C98.4158 27.74 99.2666 27.6246 99.9228 27.3654C100.543 27.1231 101.083 26.8186 101.537 26.4467L101.86 26.1821L101.657 25.8172L100.557 23.8372L100.226 23.2411L99.757 23.7361C99.5876 23.9149 99.3141 24.0897 98.8997 24.2399L98.8975 24.2407C98.5104 24.383 98.0475 24.46 97.5 24.46C97.0725 24.46 96.6817 24.3118 96.3123 23.9863C95.9514 23.6627 95.6336 23.1528 95.3845 22.4125C95.1459 21.6836 95.02 20.7831 95.02 19.7C95.02 18.8531 95.1402 18.1236 95.3691 17.5031L95.3696 17.5016C95.598 16.8767 95.9174 16.4186 96.3137 16.0994L96.3137 16.0994L96.3169 16.0967C96.7007 15.7823 97.1597 15.62 97.72 15.62C98.1179 15.62 98.412 15.661 98.6189 15.7266L98.6257 15.7288L98.6326 15.7308C98.8674 15.7978 99.0354 15.8832 99.153 15.9747L99.153 15.9748L99.1624 15.9818C99.3074 16.0892 99.4902 16.2577 99.7122 16.4987L100.19 17.017L100.521 16.3953L101.641 14.2953L101.823 13.9537L101.538 13.6918C101.272 13.4467 100.992 13.2318 100.699 13.0483C100.373 12.8376 99.9544 12.6716 99.4641 12.5383C98.94 12.389 98.3218 12.32 97.62 12.32C96.4327 12.32 95.345 12.6163 94.369 13.2135L94.369 13.2135L94.3676 13.2144C93.3905 13.8168 92.6272 14.6964 92.0714 15.8293C91.5101 16.9665 91.24 18.3092 91.24 19.84C91.24 21.5109 91.5078 22.9545 92.067 24.1516L92.068 24.1538C92.6266 25.3346 93.3769 26.245 94.3318 26.852ZM103.167 12.56H102.667V13.06V27V27.5H103.167H105.727H106.227V27V13.06V12.56H105.727H103.167ZM119.388 13.06V12.56H118.888H116.428H115.928V13.06V19.5V19.5131L115.928 19.5261L115.946 19.87L109.627 12.4947L109.478 12.32H109.248H109.028H108.528V12.82V27V27.5H109.028H111.488H111.988V27V20.8V20.7871L111.987 20.7743L111.966 20.3712L118.312 27.6096L118.461 27.78H118.688H118.888H119.388V27.28V13.06ZM130.37 24.74V24.24H129.87H125.19V21.12H128.49H128.99V20.62V18.5V18H128.49H125.19V15.74H129.47H129.97V15.24V13.06V12.56H129.47H122.19H121.69V13.06V27V27.5H122.19H129.87H130.37V27V24.74ZM144.528 12.82V12.32H144.028H143.808H143.575L143.425 12.4979L138.206 18.6954L132.949 12.4966L132.799 12.32H132.568H132.368H131.868V12.82V27V27.5H132.368H134.848H135.348V27V21.02V21.0084L135.347 20.9967L135.317 20.3584L137.807 23.284L138.188 23.7315L138.568 23.284L141.073 20.3405L141.048 21.0009L141.048 21.0105V21.02V27V27.5H141.548H144.028H144.528V27V12.82ZM148.167 27.5H148.516L148.637 27.172L149.256 25.48H153.544L154.201 27.1801L154.324 27.5H154.667H157.387H158.138L157.848 26.8074L151.928 12.6274L151.8 12.32H151.467H151.267H150.934L150.805 12.6279L144.905 26.8079L144.617 27.5H145.367H148.167ZM150.344 22.54L151.36 19.7828L152.419 22.54H150.344Z" stroke="#0096FA"/>
</g>
</svg>
