<svg width="159" height="32" viewBox="0 0 1153 230" fill="none" xmlns="http://www.w3.org/2000/svg">
<g>
<path class='great' d="M29.2401 170.362L29.2421 170.363L71.104 174.512L71.1473 175.01C71.1482 175.01 71.1492 175.01 71.1501 175.01C75.0882 174.667 79.111 174.154 83.2182 173.469L83.636 173.4V172.976V127.92V127.42H83.136H63.744H63.244V127.92V157.376C61.4584 157.459 59.6624 157.5 57.856 157.5C51.0359 157.5 45.3972 156.441 40.918 154.348C36.4539 152.22 33.1008 148.951 30.8468 144.528C28.6315 140.054 27.508 134.271 27.508 127.152C27.508 119.519 28.7176 113.442 31.0986 108.889C33.5184 104.3 37.1635 100.965 42.0525 98.8758C46.962 96.7777 53.2465 95.716 60.928 95.716C64.1509 95.716 67.3523 95.9068 70.5324 96.2884L70.5332 96.2885C73.7549 96.67 77.0203 97.2637 80.3297 98.0698L80.948 98.2204V97.584V80.432V80.0368L80.5635 79.9455C77.1292 79.1299 73.6098 78.5291 70.0055 78.1429C66.4457 77.7569 62.8011 77.564 59.072 77.564C47.4602 77.564 37.6148 79.3846 29.5541 83.0484C21.4851 86.6732 15.3442 92.1403 11.1503 99.4471C6.95677 106.753 4.87598 115.891 4.87598 126.832C4.87598 137.855 6.89149 146.992 10.9563 154.213C15.0241 161.44 21.1265 166.823 29.2401 170.362ZM99.262 174V174.5H99.762H120.178H120.678V174V139.454C122.158 139.531 123.603 139.607 125.015 139.683L125.015 139.683L125.028 139.684C126.612 139.727 128.345 139.748 130.226 139.748C130.505 139.748 130.782 139.747 131.058 139.744L155.096 174.286L155.245 174.5H155.506H178.226H179.191L178.634 173.712L152.114 136.155C158.076 133.823 162.701 130.389 165.96 125.843L165.962 125.842C169.276 121.176 170.918 115.416 170.918 108.592C170.918 98.0208 167.437 90.1689 160.405 85.1457C153.413 80.1083 143.05 77.628 129.394 77.628C125.882 77.628 122.391 77.7779 118.922 78.0776C115.455 78.3345 112.094 78.7198 108.839 79.2336C105.587 79.7045 102.524 80.2612 99.6527 80.9041L99.262 80.9916V81.392V174ZM148.362 100.28L148.364 100.284C149.707 102.4 150.398 105.158 150.398 108.592C150.398 113.818 148.773 117.502 145.614 119.77C142.412 122.069 137.439 123.26 130.61 123.26H130.602H130.595H130.587H130.58H130.572H130.565H130.558H130.55H130.543H130.535H130.528H130.52H130.513H130.505H130.498H130.49H130.483H130.475H130.468H130.46H130.453H130.445H130.438H130.43H130.423H130.415H130.408H130.401H130.393H130.386H130.378H130.371H130.363H130.356H130.348H130.341H130.333H130.326H130.319H130.311H130.304H130.296H130.289H130.281H130.274H130.267H130.259H130.252H130.244H130.237H130.229H130.222H130.215H130.207H130.2H130.192H130.185H130.177H130.17H130.163H130.155H130.148H130.14H130.133H130.126H130.118H130.111H130.103H130.096H130.089H130.081H130.074H130.066H130.059H130.052H130.044H130.037H130.029H130.022H130.015H130.007H130H129.993H129.985H129.978H129.97H129.963H129.956H129.948H129.941H129.934H129.926H129.919H129.911H129.904H129.897H129.889H129.882H129.875H129.867H129.86H129.853H129.845H129.838H129.831H129.823H129.816H129.809H129.801H129.794H129.787H129.779H129.772H129.764H129.757H129.75H129.743H129.735H129.728H129.721H129.713H129.706H129.699H129.691H129.684H129.677H129.669H129.662H129.655H129.647H129.64H129.633H129.625H129.618H129.611H129.604H129.596H129.589H129.582H129.574H129.567H129.56H129.552H129.545H129.538H129.531H129.523H129.516H129.509H129.501H129.494H129.487H129.48H129.472H129.465H129.458H129.451H129.443H129.436H129.429H129.421H129.414H129.407H129.4H129.392H129.385H129.378H129.371H129.363H129.356H129.349H129.342H129.334H129.327H129.32H129.313H129.305H129.298H129.291H129.284H129.276H129.269H129.262H129.255H129.248H129.24H129.233H129.226H129.219H129.211H129.204H129.197H129.19H129.183H129.175H129.168H129.161H129.154H129.146H129.139H129.132H129.125H129.118H129.11H129.103H129.096H129.089H129.082H129.074H129.067H129.06H129.053H129.046H129.039H129.031H129.024H129.017H129.01H129.003H128.995H128.988H128.981H128.974H128.967H128.96H128.952H128.945H128.938H128.931H128.924H128.917H128.909H128.902H128.895H128.888H128.881H128.874H128.866H128.859H128.852H128.845H128.838H128.831H128.824H128.816H128.809H128.802H128.795H128.788H128.781H128.774H128.766H128.759H128.752H128.745H128.738H128.731H128.724H128.717H128.709H128.702H128.695H128.688H128.681H128.674H128.667H128.66H128.653H128.645H128.638H128.631H128.624H128.617H128.61H128.603H128.596H128.589H128.582H128.574H128.567H128.56H128.553H128.546H128.539H128.532H128.525H128.518H128.511H128.504H128.497H128.49H128.482H128.475H128.468H128.461H128.454H128.447H128.44H128.433H128.426H128.419H128.412H128.405H128.398H128.391H128.384H128.377H128.369H128.362H128.355H128.348H128.341H128.334H128.327H128.32H128.313H128.306H128.299H128.292H128.285H128.278H128.271H128.264H128.257H128.25H128.243H128.236H128.229H128.222H128.215H128.208H128.201H128.194H128.187H128.18H128.173H128.166H128.159H128.152H128.145H128.138H128.131H128.124H128.117H128.11H128.103H128.096H128.089H128.082H128.075H128.068H128.061H128.054H128.047H128.04H128.033H128.026H128.019H128.012H128.005H127.998H127.991H127.984H127.977H127.97H127.963H127.956H127.949H127.942H127.935H127.928H127.921H127.914H127.907H127.9H127.894H127.887H127.88H127.873H127.866H127.859H127.852H127.845H127.838H127.831H127.824H127.817H127.81H127.803H127.796H127.789H127.783H127.776H127.769H127.762H127.755H127.748H127.741H127.734H127.727H127.72H127.713H127.706H127.7H127.693H127.686H127.679H127.672H127.665H127.658H127.651H127.644H127.637H127.631H127.624H127.617H127.61H127.603H127.596H127.589H127.582H127.575H127.569H127.562H127.555H127.548H127.541H127.534H127.527H127.52H127.514H127.507H127.5H127.493H127.486H127.479H127.472H127.465H127.459H127.452H127.445H127.438H127.431H127.424H127.418H127.411H127.404H127.397H127.39H127.383H127.376H127.37H127.363H127.356H127.349H127.342H127.335H127.329H127.322H127.315H127.308H127.301H127.294H127.288H127.281H127.274H127.267H127.26H127.254H127.247H127.24H127.233H127.226H127.22H127.213H127.206H127.199H127.192H127.186H127.179H127.172H127.165H127.158H127.152H127.145H127.138H127.131H127.124H127.118H127.111H127.104H127.097H127.09H127.084H127.077H127.07H127.063H127.057H127.05H127.043H127.036H127.03H127.023H127.016H127.009H127.003H126.996H126.989H126.982H126.975H126.972C125.875 123.218 124.779 123.154 123.683 123.07C122.745 122.958 121.743 122.862 120.678 122.783V94.8597C122.242 94.561 123.862 94.3336 125.536 94.1779C127.353 94.0088 129.343 93.924 131.506 93.924C135.865 93.924 139.427 94.4537 142.211 95.4925C144.982 96.5264 147.02 98.126 148.362 100.28ZM187.512 174V174.5H188.012H255.148H255.648V174V157.36V156.86H255.148H209.056V134.372H247.98H248.48V133.872V117.232V116.732H247.98H209.056V96.42H254.508H255.008V95.92V79.28V78.78H254.508H188.012H187.512V79.28V174ZM257.92 173.846L257.709 174.5H258.396H278.62H278.989L279.098 174.147L286.792 149.22H321.181L328.894 174.148L329.003 174.5H329.372H349.852H350.539L350.328 173.846L319.736 79.1263L319.624 78.78H319.26H288.988H288.624L288.512 79.1263L257.92 173.846ZM303.966 93.5819L315.743 131.644H292.217L303.966 93.5819ZM369.97 174V174.5H370.47H391.334H391.834V174V97.06H421.158H421.658V96.56V79.28V78.78H421.158H340.582H340.082V79.28V96.56V97.06H340.582H369.97V174Z" stroke="black" shape-rendering="crispEdges"/>
<path class='cinema' d="M676.645 172.942L676.648 172.943L708.984 174.384L709.058 174.879C709.058 174.878 709.058 174.878 709.059 174.878C712.791 174.321 716.187 173.569 719.244 172.622L719.596 172.513V172.144V155.056V154.393L718.959 154.575C715.691 155.509 712.466 156.251 709.286 156.803C706.113 157.31 702.919 157.564 699.704 157.564C693.182 157.564 687.778 156.547 683.468 154.539C679.227 152.543 676.022 149.323 673.851 144.856C671.719 140.34 670.636 134.258 670.636 126.576C670.636 119.153 671.74 113.197 673.914 108.681C676.086 104.172 679.332 100.908 683.661 98.8683L683.663 98.8674C688.056 96.7757 693.629 95.716 700.408 95.716C703.674 95.716 706.832 95.9069 709.882 96.2881L709.883 96.2882C712.979 96.6699 716.01 97.2212 718.978 97.9419L719.596 98.092V97.456V80.304V79.9098L719.213 79.8178C715.991 79.0447 712.685 78.4864 709.293 78.1429C705.904 77.7568 702.387 77.564 698.744 77.564C687.981 77.564 678.793 79.3862 671.2 83.0532C663.596 86.6823 657.801 92.1748 653.825 99.5215C649.849 106.825 647.876 115.937 647.876 126.832C647.876 135.405 648.969 142.783 651.169 148.952C653.369 155.119 656.61 160.204 660.9 164.19L660.903 164.194C665.23 168.131 670.481 171.045 676.645 172.942ZM730.137 174V174.5H730.637H751.437H751.937V174V79.28V78.78H751.437H730.637H730.137V79.28V174ZM768.012 174V174.5H768.512H788.096H788.596V174V112.273L828.893 174.272L829.041 174.5H829.312H850.24H850.74V174V79.28V78.78H850.24H830.656H830.156V79.28V141.017L789.795 79.0073L789.647 78.78H789.376H768.512H768.012V79.28V174ZM866.762 174V174.5H867.262H934.398H934.898V174V157.36V156.86H934.398H888.306V134.372H927.23H927.73V133.872V117.232V116.732H927.23H888.306V96.42H933.758H934.258V95.92V79.28V78.78H933.758H867.262H866.762V79.28V174ZM947.268 174V174.5H947.768H967.16H967.66V174V110.846L990.064 160.51L990.197 160.804H990.52H1007.61H1007.94L1008.07 160.504L1030.47 109.225V174V174.5H1030.97H1050.36H1050.86V174V79.28V78.78H1050.36H1025.08H1024.75L1024.62 79.0827L999.424 137.755L973.505 79.078L973.374 78.78H973.048H947.768H947.268V79.28V174ZM1059.55 173.846L1059.33 174.5H1060.02H1080.24H1080.61L1080.72 174.147L1088.42 149.22H1122.81L1130.52 174.148L1130.63 174.5H1131H1151.48H1152.16L1151.95 173.846L1121.36 79.1263L1121.25 78.78H1120.88H1090.61H1090.25L1090.14 79.1263L1059.55 173.846ZM1105.59 93.5819L1117.37 131.644H1093.84L1105.59 93.5819Z" stroke="black"/>
<path class='eight' d="M482.372 221.967L482.376 221.969C495.651 226.896 512.515 229.35 532.95 229.35C552.393 229.35 568.615 226.594 581.596 221.06C594.566 215.53 604.301 207.924 610.766 198.227C617.323 188.441 620.6 177.394 620.6 165.1C620.6 154.33 618.385 144.797 613.941 136.514C609.486 128.112 601.91 120.753 591.257 114.421C588.15 112.545 584.709 110.731 580.933 108.978C586.799 105.95 591.818 102.583 595.983 98.8734C602.431 93.1299 607.129 86.7197 610.062 79.6414C612.988 72.5789 614.45 65.1137 614.45 57.25C614.45 39.6925 607.425 25.8403 593.393 15.7446C579.476 5.66053 560.008 0.649994 535.05 0.649994C516.308 0.649994 500.589 3.25526 487.91 8.48734C475.338 13.6168 465.803 20.8718 459.338 30.2665L459.337 30.2675C452.975 39.5592 449.8 50.41 449.8 62.8C449.8 73.475 452.117 83.2062 456.758 91.9837C461.409 100.781 469.131 108.54 479.885 115.274L479.889 115.277C480.789 115.827 481.716 116.37 482.668 116.907C471.557 121.632 462.684 127.936 456.067 135.829L456.066 135.829C447.789 145.722 443.65 157.337 443.65 170.65C443.65 182.147 446.778 192.349 453.041 201.238L453.045 201.243C459.417 210.043 469.208 216.943 482.372 221.967ZM498.245 142.606C502.191 137.512 507.798 133.262 515.088 129.867C517.946 130.699 520.909 131.505 523.977 132.285L523.98 132.285C537.268 135.582 547.534 138.874 554.794 142.156L554.796 142.157C562.157 145.439 567.213 149.142 570.039 153.234C572.873 157.34 574.3 162.237 574.3 167.95C574.3 176.394 570.974 182.939 564.312 187.641L564.309 187.644C557.736 192.352 547.364 194.75 533.1 194.75C518.445 194.75 507.622 192.155 500.546 187.047C493.586 181.851 490.1 174.556 490.1 165.1C490.1 157.123 492.805 149.629 498.245 142.606ZM564.352 83.3479C560.653 88.2263 554.955 92.8476 547.228 97.2011C533.262 93.527 522.63 89.9581 515.314 86.4983C508.052 83.0161 503.148 79.2667 500.52 75.2786C497.98 71.2711 496.7 66.5184 496.7 61C496.7 53.4551 499.678 47.298 505.661 42.4913C511.731 37.695 521.294 35.25 534.45 35.25C546.699 35.25 555.874 37.5924 562.051 42.2008L562.054 42.203C568.31 46.7976 571.45 53.3892 571.45 62.05C571.45 70.1446 569.084 77.2357 564.355 83.3439L564.352 83.3479Z" stroke="black"/>
</g>

</svg>
