<svg width="159" height="32" viewBox="0 0 1286 235" fill="none" xmlns="http://www.w3.org/2000/svg">
<path d="M69.92 103.8C68.1467 100.533 65.58 98.06 62.22 96.38C58.9533 94.6066 55.08 93.72 50.6 93.72C42.8533 93.72 36.6467 96.2866 31.98 101.42C27.3133 106.46 24.98 113.227 24.98 121.72C24.98 130.773 27.4067 137.867 32.26 143C37.2067 148.04 43.9733 150.56 52.56 150.56C58.44 150.56 63.3867 149.067 67.4 146.08C71.5067 143.093 74.4933 138.8 76.36 133.2H45.98V115.56H98.06V137.82C96.2867 143.793 93.2533 149.347 88.96 154.48C84.76 159.613 79.3933 163.767 72.86 166.94C66.3267 170.113 58.9533 171.7 50.74 171.7C41.0333 171.7 32.3533 169.6 24.7 165.4C17.14 161.107 11.2133 155.18 6.92 147.62C2.72 140.06 0.619995 131.427 0.619995 121.72C0.619995 112.013 2.72 103.38 6.92 95.82C11.2133 88.1666 17.14 82.24 24.7 78.04C32.26 73.7466 40.8933 71.6 50.6 71.6C62.36 71.6 72.2533 74.4466 80.28 80.14C88.4 85.8333 93.7667 93.72 96.38 103.8H69.92Z" fill="white"/>
<path d="M161.441 171L141.001 133.9H135.261V171H111.321V72.72H151.501C159.247 72.72 165.827 74.0733 171.241 76.78C176.747 79.4866 180.854 83.22 183.561 87.98C186.267 92.6466 187.621 97.8733 187.621 103.66C187.621 110.193 185.754 116.027 182.021 121.16C178.381 126.293 172.967 129.933 165.781 132.08L188.461 171H161.441ZM135.261 116.96H150.101C154.487 116.96 157.754 115.887 159.901 113.74C162.141 111.593 163.261 108.56 163.261 104.64C163.261 100.907 162.141 97.9666 159.901 95.82C157.754 93.6733 154.487 92.6 150.101 92.6H135.261V116.96Z" fill="white"/>
<path d="M226.589 91.9V111.78H258.649V130.26H226.589V151.82H262.849V171H202.649V72.72H262.849V91.9H226.589Z" fill="white"/>
<path d="M339.571 153.64H302.891L297.011 171H271.951L307.511 72.72H335.231L370.791 171H345.451L339.571 153.64ZM333.411 135.16L321.231 99.18L309.191 135.16H333.411Z" fill="white"/>
<path d="M452.314 72.72V91.9H426.274V171H402.334V91.9H376.294V72.72H452.314Z" fill="white"/>
<path d="M541.82 109.264C522.519 98.9973 512.868 82.8787 512.868 60.908C512.868 49.82 515.743 39.7587 521.492 30.724C527.241 21.484 535.968 14.1947 547.672 8.85598C559.376 3.31198 573.749 0.539978 590.792 0.539978C607.835 0.539978 622.105 3.31198 633.604 8.85598C645.308 14.1947 654.035 21.484 659.784 30.724C665.533 39.7587 668.408 49.82 668.408 60.908C668.408 71.996 665.739 81.6467 660.4 89.86C655.267 98.0733 648.285 104.541 639.456 109.264C650.544 114.603 659.065 121.995 665.02 131.44C670.975 140.68 673.952 151.563 673.952 164.088C673.952 178.667 670.256 191.295 662.864 201.972C655.472 212.444 645.411 220.452 632.68 225.996C620.155 231.54 606.192 234.312 590.792 234.312C575.392 234.312 561.327 231.54 548.596 225.996C536.071 220.452 526.112 212.444 518.72 201.972C511.328 191.295 507.632 178.667 507.632 164.088C507.632 151.357 510.609 140.372 516.564 131.132C522.519 121.687 530.937 114.397 541.82 109.264ZM617.28 68.916C617.28 60.4973 614.816 54.0293 609.888 49.512C605.165 44.7893 598.8 42.428 590.792 42.428C582.784 42.428 576.316 44.7893 571.388 49.512C566.665 54.2347 564.304 60.8053 564.304 69.224C564.304 77.232 566.768 83.5973 571.696 88.32C576.624 92.8373 582.989 95.096 590.792 95.096C598.595 95.096 604.96 92.7347 609.888 88.012C614.816 83.2893 617.28 76.924 617.28 68.916ZM590.792 132.056C581.141 132.056 573.339 134.725 567.384 140.064C561.429 145.197 558.452 152.384 558.452 161.624C558.452 170.248 561.327 177.332 567.076 182.876C573.031 188.42 580.936 191.192 590.792 191.192C600.648 191.192 608.348 188.42 613.892 182.876C619.641 177.332 622.516 170.248 622.516 161.624C622.516 152.589 619.539 145.403 613.584 140.064C607.835 134.725 600.237 132.056 590.792 132.056Z" fill="#0093F5"/>
<path d="M731.62 121.72C731.62 112.013 733.72 103.38 737.92 95.82C742.12 88.1666 747.953 82.24 755.42 78.04C762.98 73.7466 771.52 71.6 781.04 71.6C792.707 71.6 802.693 74.68 811 80.84C819.307 87 824.86 95.4 827.66 106.04H801.34C799.38 101.933 796.58 98.8066 792.94 96.66C789.393 94.5133 785.333 93.44 780.76 93.44C773.387 93.44 767.413 96.0066 762.84 101.14C758.267 106.273 755.98 113.133 755.98 121.72C755.98 130.307 758.267 137.167 762.84 142.3C767.413 147.433 773.387 150 780.76 150C785.333 150 789.393 148.927 792.94 146.78C796.58 144.633 799.38 141.507 801.34 137.4H827.66C824.86 148.04 819.307 156.44 811 162.6C802.693 168.667 792.707 171.7 781.04 171.7C771.52 171.7 762.98 169.6 755.42 165.4C747.953 161.107 742.12 155.18 737.92 147.62C733.72 140.06 731.62 131.427 731.62 121.72Z" fill="white"/>
<path d="M866.261 72.72V171H842.321V72.72H866.261Z" fill="white"/>
<path d="M971.53 171H947.59L907.55 110.38V171H883.61V72.72H907.55L947.59 133.62V72.72H971.53V171Z" fill="white"/>
<path d="M1012.82 91.9V111.78H1044.88V130.26H1012.82V151.82H1049.08V171H988.883V72.72H1049.08V91.9H1012.82Z" fill="white"/>
<path d="M1175.93 72.72V171H1151.99V112.06L1130.01 171H1110.69L1088.57 111.92V171H1064.63V72.72H1092.91L1120.49 140.76L1147.79 72.72H1175.93Z" fill="white"/>
<path d="M1254.32 153.64H1217.64L1211.76 171H1186.7L1222.26 72.72H1249.98L1285.54 171H1260.2L1254.32 153.64ZM1248.16 135.16L1235.98 99.18L1223.94 135.16H1248.16Z" fill="white"/>
</svg>
