<svg id="spinner" width="204" height="201" viewBox="0 0 204 201" fill="none" xmlns="http://www.w3.org/2000/svg">
<path d="M173.529 67.0353L172.736 68.7971L174.241 70.009C191.006 83.5107 201.5 103.17 201.5 125C201.5 165.377 165.462 198.5 120.5 198.5C93.0318 198.5 68.8216 186.099 54.194 167.223L53.5226 166.357L52.4305 166.264C24.0778 163.845 2.5 143.328 2.5 119C2.5 101.663 13.3991 86.3194 29.9734 77.9976L31.9605 76.9999L31.2015 74.9099C29.4528 70.0951 28.5 64.909 28.5 59.5C28.5 34.1428 49.4943 13.5 75.5 13.5C82.0331 13.5 88.248 14.8032 93.8932 17.1553L95.4525 17.8049L96.637 16.6007C105.185 7.91106 117.19 2.5 130.5 2.5C156.506 2.5 177.5 23.1428 177.5 48.5C177.5 55.0985 176.082 61.3672 173.529 67.0353Z" stroke="#398FF3" stroke-width="5"/>
</svg>
