<svg width="159" height="32" viewBox="0 0 1486 236" fill="none" xmlns="http://www.w3.org/2000/svg">
<path d="M39.24 169.98C32.0533 169.98 25.6133 168.813 19.92 166.48C14.2267 164.147 9.65334 160.693 6.20001 156.12C2.84 151.547 1.06667 146.04 0.880005 139.6H26.36C26.7333 143.24 27.9933 146.04 30.14 148C32.2867 149.867 35.0867 150.8 38.54 150.8C42.0867 150.8 44.8867 150.007 46.94 148.42C48.9933 146.74 50.02 144.453 50.02 141.56C50.02 139.133 49.18 137.127 47.5 135.54C45.9133 133.953 43.9067 132.647 41.48 131.62C39.1467 130.593 35.7867 129.427 31.4 128.12C25.0533 126.16 19.8733 124.2 15.86 122.24C11.8467 120.28 8.39334 117.387 5.5 113.56C2.60667 109.733 1.16 104.74 1.16 98.58C1.16 89.4333 4.47334 82.2933 11.1 77.16C17.7267 71.9333 26.36 69.32 37 69.32C47.8267 69.32 56.5533 71.9333 63.18 77.16C69.8067 82.2933 73.3533 89.48 73.82 98.72H47.92C47.7333 95.5467 46.5667 93.0733 44.42 91.3C42.2733 89.4333 39.52 88.5 36.16 88.5C33.2667 88.5 30.9333 89.2933 29.16 90.88C27.3867 92.3733 26.5 94.5667 26.5 97.46C26.5 100.633 27.9933 103.107 30.98 104.88C33.9667 106.653 38.6333 108.567 44.98 110.62C51.3267 112.767 56.46 114.82 60.38 116.78C64.3933 118.74 67.8467 121.587 70.74 125.32C73.6333 129.053 75.08 133.86 75.08 139.74C75.08 145.34 73.6333 150.427 70.74 155C67.94 159.573 63.8333 163.213 58.42 165.92C53.0067 168.627 46.6133 169.98 39.24 169.98Z" fill="white"/>
<path d="M113.333 70.72V129.52C113.333 135.4 114.779 139.927 117.673 143.1C120.566 146.273 124.813 147.86 130.413 147.86C136.013 147.86 140.306 146.273 143.293 143.1C146.279 139.927 147.773 135.4 147.773 129.52V70.72H171.713V129.38C171.713 138.153 169.846 145.573 166.113 151.64C162.379 157.707 157.339 162.28 150.993 165.36C144.739 168.44 137.739 169.98 129.993 169.98C122.246 169.98 115.293 168.487 109.133 165.5C103.066 162.42 98.2595 157.847 94.7128 151.78C91.1662 145.62 89.3928 138.153 89.3928 129.38V70.72H113.333Z" fill="white"/>
<path d="M212.464 150.52H243.824V169H188.524V70.72H212.464V150.52Z" fill="white"/>
<path d="M279.182 150.52H310.543V169H255.242V70.72H279.182V150.52Z" fill="white"/>
<path d="M345.901 70.72V169H321.961V70.72H345.901Z" fill="white"/>
<path d="M455.51 70.72L420.65 169H390.69L355.83 70.72H381.31L405.67 144.92L430.17 70.72H455.51Z" fill="white"/>
<path d="M526.696 151.64H490.016L484.136 169H459.076L494.636 70.72H522.356L557.916 169H532.576L526.696 151.64ZM520.536 133.16L508.356 97.18L496.316 133.16H520.536Z" fill="white"/>
<path d="M656.659 169H632.719L592.679 108.38V169H568.739V70.72H592.679L632.719 131.62V70.72H656.659V169Z" fill="white"/>
<path d="M931.62 119.72C931.62 110.013 933.72 101.38 937.92 93.82C942.12 86.1667 947.953 80.24 955.42 76.04C962.98 71.7467 971.52 69.6 981.04 69.6C992.707 69.6 1002.69 72.68 1011 78.84C1019.31 85 1024.86 93.4 1027.66 104.04H1001.34C999.38 99.9333 996.58 96.8067 992.94 94.66C989.393 92.5133 985.333 91.44 980.76 91.44C973.387 91.44 967.413 94.0067 962.84 99.14C958.267 104.273 955.98 111.133 955.98 119.72C955.98 128.307 958.267 135.167 962.84 140.3C967.413 145.433 973.387 148 980.76 148C985.333 148 989.393 146.927 992.94 144.78C996.58 142.633 999.38 139.507 1001.34 135.4H1027.66C1024.86 146.04 1019.31 154.44 1011 160.6C1002.69 166.667 992.707 169.7 981.04 169.7C971.52 169.7 962.98 167.6 955.42 163.4C947.953 159.107 942.12 153.18 937.92 145.62C933.72 138.06 931.62 129.427 931.62 119.72Z" fill="white"/>
<path d="M1066.26 70.72V169H1042.32V70.72H1066.26Z" fill="white"/>
<path d="M1171.53 169H1147.59L1107.55 108.38V169H1083.61V70.72H1107.55L1147.59 131.62V70.72H1171.53V169Z" fill="white"/>
<path d="M1212.82 89.9V109.78H1244.88V128.26H1212.82V149.82H1249.08V169H1188.88V70.72H1249.08V89.9H1212.82Z" fill="white"/>
<path d="M1375.93 70.72V169H1351.99V110.06L1330.01 169H1310.69L1288.57 109.92V169H1264.63V70.72H1292.91L1320.49 138.76L1347.79 70.72H1375.93Z" fill="white"/>
<path d="M1454.32 151.64H1417.64L1411.76 169H1386.7L1422.26 70.72H1449.98L1485.54 169H1460.2L1454.32 151.64ZM1448.16 133.16L1435.98 97.18L1423.94 133.16H1448.16Z" fill="white"/>
<path d="M825.484 66.638C823.809 58.8927 820.879 53.136 816.692 49.368C812.505 45.3907 806.539 43.402 798.794 43.402C786.862 43.402 778.279 48.6353 773.046 59.102C767.813 69.3593 765.091 85.6873 764.882 108.086C769.487 100.759 776.081 95.0027 784.664 90.816C793.456 86.6293 803.085 84.536 813.552 84.536C834.067 84.536 850.499 91.0253 862.85 104.004C875.41 116.983 881.69 135.09 881.69 158.326C881.69 173.607 878.55 187.005 872.27 198.518C866.199 210.031 857.198 219.033 845.266 225.522C833.543 232.011 819.623 235.256 803.504 235.256C771.267 235.256 748.868 225.208 736.308 205.112C723.748 184.807 717.468 155.709 717.468 117.82C717.468 78.0467 724.062 48.5307 737.25 29.272C750.647 9.80399 771.999 0.0699768 801.306 0.0699768C817.006 0.0699768 830.194 3.20998 840.87 9.48999C851.755 15.5607 859.919 23.62 865.362 33.668C871.014 43.716 874.363 54.706 875.41 66.638H825.484ZM800.678 126.926C791.677 126.926 784.141 129.647 778.07 135.09C772.209 140.323 769.278 147.859 769.278 157.698C769.278 167.746 771.999 175.596 777.442 181.248C783.094 186.9 791.049 189.726 801.306 189.726C810.517 189.726 817.739 187.005 822.972 181.562C828.415 175.91 831.136 168.269 831.136 158.64C831.136 148.801 828.519 141.056 823.286 135.404C818.053 129.752 810.517 126.926 800.678 126.926Z" fill="#0093F5"/>
</svg>
