<svg width="159" height="32" viewBox="0 0 1433 230" fill="none" xmlns="http://www.w3.org/2000/svg">
<path class='cinema' d="M924.645 196.942L924.648 196.943L956.984 198.384L957.058 198.879C957.058 198.878 957.058 198.878 957.059 198.878C960.791 198.321 964.187 197.569 967.244 196.622L967.596 196.513V196.144V179.056V178.393L966.959 178.575C963.691 179.509 960.466 180.251 957.286 180.803C954.113 181.31 950.919 181.564 947.704 181.564C941.182 181.564 935.778 180.547 931.468 178.539C927.227 176.543 924.022 173.323 921.851 168.856C919.719 164.34 918.636 158.258 918.636 150.576C918.636 143.153 919.74 137.197 921.914 132.681C924.086 128.172 927.332 124.908 931.661 122.868L931.663 122.867C936.056 120.776 941.629 119.716 948.408 119.716C951.674 119.716 954.832 119.907 957.882 120.288L957.883 120.288C960.979 120.67 964.01 121.221 966.978 121.942L967.596 122.092V121.456V104.304V103.91L967.213 103.818C963.991 103.045 960.685 102.486 957.293 102.143C953.904 101.757 950.387 101.564 946.744 101.564C935.981 101.564 926.793 103.386 919.2 107.053C911.596 110.682 905.801 116.175 901.825 123.521C897.849 130.825 895.876 139.937 895.876 150.832C895.876 159.405 896.969 166.783 899.169 172.952C901.369 179.119 904.61 184.204 908.9 188.19L908.903 188.194C913.23 192.131 918.481 195.045 924.645 196.942ZM984.537 198V198.5H985.037H1005.84H1006.34V198V103.28V102.78H1005.84H985.037H984.537V103.28V198ZM1028.81 198V198.5H1029.31H1048.9H1049.4V198V136.273L1089.69 198.272L1089.84 198.5H1090.11H1111.04H1111.54V198V103.28V102.78H1111.04H1091.46H1090.96V103.28V165.017L1050.6 103.007L1050.45 102.78H1050.18H1029.31H1028.81V103.28V198ZM1133.96 198V198.5H1134.46H1201.6H1202.1V198V181.36V180.86H1201.6H1155.51V158.372H1194.43H1194.93V157.872V141.232V140.732H1194.43H1155.51V120.42H1200.96H1201.46V119.92V103.28V102.78H1200.96H1134.46H1133.96V103.28V198ZM1220.87 198V198.5H1221.37H1240.76H1241.26V198V134.846L1263.66 184.51L1263.8 184.804H1264.12H1281.21H1281.54L1281.67 184.504L1304.07 133.225V198V198.5H1304.57H1323.96H1324.46V198V103.28V102.78H1323.96H1298.68H1298.35L1298.22 103.083L1273.02 161.755L1247.11 103.078L1246.97 102.78H1246.65H1221.37H1220.87V103.28V198ZM1339.55 197.846L1339.33 198.5H1340.02H1360.24H1360.61L1360.72 198.147L1368.42 173.22H1402.81L1410.52 198.148L1410.63 198.5H1411H1431.48H1432.16L1431.95 197.846L1401.36 103.126L1401.25 102.78H1400.88H1370.61H1370.25L1370.14 103.126L1339.55 197.846ZM1385.59 117.582L1397.37 155.644H1373.84L1385.59 117.582Z" stroke="black"/>
<path class='sullivan' d="M140.55 177.136C137.393 180.507 132.614 182.192 126.214 182.192C119.814 182.192 115.014 180.507 111.814 177.136C108.614 173.765 107.014 168.325 107.014 160.816V103.78V103.28H106.514H86.778H86.278V103.78V158.768C86.278 167.856 87.686 175.408 90.502 181.424C93.318 187.397 97.67 191.856 103.558 194.8C109.446 197.744 116.998 199.216 126.214 199.216C135.302 199.216 142.769 197.744 148.614 194.8C154.459 191.856 158.769 187.397 161.542 181.424L140.55 177.136ZM140.55 177.136C143.75 173.765 145.35 168.325 145.35 160.816V103.78L140.55 177.136ZM3.26002 195.184V195.546L3.60347 195.659C7.51558 196.949 11.7668 197.936 16.3557 198.622C20.9884 199.351 25.6006 199.716 30.192 199.716C38.2589 199.716 45.1743 198.558 50.9241 196.223L50.9271 196.222C56.6761 193.845 61.09 190.439 64.1399 185.995C67.2342 181.506 68.772 176.178 68.772 170.032C68.772 165.103 67.7992 160.816 65.8331 157.189C63.9081 153.515 60.9181 150.446 56.887 147.975C52.8621 145.465 47.7543 143.465 41.5782 141.963L34.4836 140.11C34.4828 140.109 34.482 140.109 34.4813 140.109C29.7997 138.832 26.7031 137.428 25.0915 135.937C23.5068 134.471 22.692 132.439 22.692 129.776C22.692 127.703 23.2785 125.89 24.4468 124.318C25.6416 122.766 27.6248 121.532 30.4676 120.654L30.4676 120.654L30.4739 120.652C33.3044 119.736 37.1707 119.268 42.096 119.268C45.8279 119.268 49.5384 119.522 53.2277 120.031C56.9174 120.54 60.2609 121.26 63.26 122.19L63.908 122.39V121.712V104.816V104.439L63.5454 104.335C60.5287 103.473 57.0683 102.808 53.1671 102.336C49.304 101.821 45.2295 101.564 40.944 101.564C27.71 101.564 17.7027 104.11 11.0063 109.284L11.005 109.285C4.34272 114.467 1.02002 121.681 1.02002 130.864C1.02002 138.22 3.16541 144.198 7.49385 148.745L7.49728 148.748C11.849 153.231 18.2157 156.508 26.5484 158.612C26.5488 158.613 26.5492 158.613 26.5496 158.613L33.7147 160.468L33.7151 160.468C38.998 161.831 42.5031 163.324 44.3285 164.906L44.3327 164.909C46.1664 166.464 47.1 168.619 47.1 171.44C47.1 174.791 45.844 177.367 43.336 179.229C40.825 181.05 36.4621 182.012 30.128 182.012C27.4182 182.012 24.5357 181.843 21.48 181.503C18.4657 181.163 15.4511 180.697 12.4362 180.102C9.4249 179.466 6.58569 178.703 3.91813 177.814L3.26002 177.594V178.288V195.184ZM90.0492 181.636L90.0498 181.637C92.9134 187.712 97.3458 192.253 103.334 195.247C109.314 198.237 116.95 199.716 126.214 199.716C135.352 199.716 142.902 198.237 148.839 195.247C154.786 192.252 159.175 187.709 161.996 181.635L161.996 181.633C164.809 175.532 166.202 167.903 166.202 158.768V103.28V102.78H165.702H145.35H144.85V103.28V160.816C144.85 168.272 143.258 173.557 140.187 176.792L140.185 176.794C137.154 180.03 132.531 181.692 126.214 181.692C119.898 181.692 115.251 180.03 112.177 176.792C109.106 173.557 107.514 168.272 107.514 160.816V103.28V102.78H107.014H86.278H85.778V103.28V158.768C85.778 167.904 87.1929 175.534 90.0492 181.636ZM188.187 198V198.5H188.687H253.007H253.507V198V180.72V180.22H253.007H209.987V103.28V102.78H209.487H188.687H188.187V103.28V198ZM268.087 198V198.5H268.587H332.907H333.407V198V180.72V180.22H332.907H289.887V103.28V102.78H289.387H268.587H268.087V103.28V198ZM347.987 198V198.5H348.487H369.287H369.787V198V103.28V102.78H369.287H348.487H347.987V103.28V198ZM414.238 198.153L414.349 198.5H414.714H445.434H445.799L445.91 198.153L476.246 103.433L476.455 102.78H475.77H455.546H455.18L455.069 103.13L430.609 180.655L406.552 103.132L406.442 102.78H406.074H384.314H383.628L383.838 103.433L414.238 198.153ZM476.57 197.846L476.359 198.5H477.046H497.27H497.639L497.748 198.147L505.442 173.22H539.831L547.544 198.148L547.653 198.5H548.022H568.502H569.189L568.978 197.846L538.386 103.126L538.274 102.78H537.91H507.638H507.274L507.162 103.126L476.57 197.846ZM522.616 117.582L534.393 155.644H510.867L522.616 117.582ZM583.812 198V198.5H584.312H603.896H604.396V198V136.273L644.693 198.272L644.841 198.5H645.112H666.04H666.54V198V103.28V102.78H666.04H646.456H645.956V103.28V165.017L605.595 103.007L605.447 102.78H605.176H584.312H583.812V103.28V198Z" stroke="black"/>
<path class='six' d="M755.72 223.316L755.723 223.318C766.387 227.342 778.198 229.35 791.15 229.35C807.007 229.35 820.784 226.59 832.464 221.052C844.148 215.512 853.174 207.498 859.528 197.009C865.883 186.517 869.05 173.974 869.05 159.4C869.05 143.836 865.938 131.085 859.673 121.183C853.419 111.199 844.892 103.832 834.101 99.0922C823.329 94.3604 811.159 92 797.6 92C787.146 92 776.992 93.6587 767.14 96.9761L767.139 96.9766C761.619 98.8544 756.719 101.17 752.441 103.925C752.903 90.2399 755.114 78.8025 759.059 69.5976C763.62 59.0889 770.449 51.3283 779.542 46.2873C788.648 41.2398 800.158 38.7 814.1 38.7C821.575 38.7 828.951 39.2482 836.226 40.3444C843.494 41.4397 850.412 43.1818 856.979 45.5699L857.65 45.8138V45.1V7.89999V7.56148L857.336 7.43576C850.792 4.8181 843.649 3.05844 835.911 2.15375C828.189 1.15107 820.169 0.649994 811.85 0.649994C788.887 0.649994 769.349 5.06223 753.259 13.9119C737.158 22.7676 724.888 36.2513 716.447 54.3386L716.446 54.3397C708.107 72.3256 703.95 94.9532 703.95 122.2C703.95 141.135 706.054 157.387 710.273 170.949C714.489 184.501 720.419 195.617 728.075 204.281L728.079 204.286C735.831 212.843 745.046 219.188 755.72 223.316ZM752.521 138.584C754.02 137.528 755.576 136.563 757.188 135.69L757.191 135.688C762.051 133.01 767.108 131.077 772.36 129.888L772.369 129.886C777.632 128.595 782.842 127.95 788 127.95C795.347 127.95 801.675 129.142 806.997 131.507L806.997 131.507L807.007 131.511C812.414 133.772 816.581 137.304 819.524 142.111C822.462 146.91 823.95 153.112 823.95 160.75C823.95 168.289 822.511 174.444 819.67 179.245L819.668 179.248C816.919 183.961 813.094 187.491 808.186 189.848C803.364 192.111 797.789 193.25 791.45 193.25C785.408 193.25 779.975 192.26 775.145 190.29C770.44 188.23 766.359 184.843 762.906 180.108C759.558 175.38 756.929 168.9 755.038 160.641C753.7 154.469 752.86 147.118 752.521 138.584Z" stroke="black"/>
</svg>
